<svg width="34" height="37" viewBox="0 0 34 37" fill="none" xmlns="http://www.w3.org/2000/svg">
<rect width="33.1788" height="36.64" rx="10" fill="#1258AE"/>
<path d="M10.3135 20.5715C9.89551 20.1368 9.89551 19.4373 10.3135 19.0026C10.5224 18.7852 10.7935 18.6766 11.0678 18.6766C11.342 18.6766 11.6131 18.7852 11.822 19.0026L15.5249 22.8536V11.1105C15.5249 10.4992 16.0016 10 16.5927 10C17.1804 10 17.6604 10.4958 17.6604 11.1105V22.8536L21.3567 19.0026C21.7747 18.5679 22.4473 18.5679 22.8653 19.0026C23.2833 19.4373 23.2833 20.1368 22.8653 20.5715L17.3437 26.314C17.1445 26.5211 16.8735 26.64 16.5894 26.64C16.3053 26.64 16.0343 26.5245 15.8351 26.314L10.3135 20.5715Z" fill="white"/>
</svg>
