<svg width="41" height="47" viewBox="0 0 41 47" fill="none" xmlns="http://www.w3.org/2000/svg">
<path d="M38.0714 2.9375H2.91942C1.30871 2.9375 0 4.26856 0 5.90254V41.0975C0 42.7314 1.30871 44.0625 2.91942 44.0625H38.0714C39.6821 44.0625 41 42.7314 41 41.0975V5.90254C41 4.26856 39.6821 2.9375 38.0714 2.9375ZM12.3915 38.1875H6.31473V18.5613H12.4007V38.1875H12.3915ZM9.35312 15.8809C7.40379 15.8809 5.82969 14.2928 5.82969 12.3467C5.82969 10.4006 7.40379 8.8125 9.35312 8.8125C11.2933 8.8125 12.8766 10.4006 12.8766 12.3467C12.8766 14.302 11.3025 15.8809 9.35312 15.8809V15.8809ZM35.1703 38.1875H29.0935V28.6406C29.0935 26.3641 29.0478 23.4357 25.9362 23.4357C22.7696 23.4357 22.2846 25.9143 22.2846 28.4754V38.1875H16.2078V18.5613H22.0375V21.2418H22.1199C22.9344 19.6996 24.9203 18.0748 27.8763 18.0748C34.0263 18.0748 35.1703 22.1414 35.1703 27.4289V38.1875V38.1875Z" fill="#4B47AB"/>
</svg>
