<svg width="41" height="47" viewBox="0 0 41 47" fill="none" xmlns="http://www.w3.org/2000/svg">
<g clip-path="url(#clip0_6_38)">
<path d="M20.5 18.6036C19.5346 18.6039 18.591 18.8914 17.7884 19.4296C16.9859 19.9679 16.3605 20.7327 15.9913 21.6275C15.6221 22.5222 15.5257 23.5067 15.7143 24.4564C15.9029 25.4061 16.3679 26.2784 17.0507 26.963C17.7335 27.6476 18.6033 28.1137 19.5502 28.3025C20.497 28.4913 21.4785 28.3942 22.3703 28.0236C23.2622 27.6529 24.0245 27.0253 24.5608 26.2201C25.0971 25.415 25.3834 24.4683 25.3834 23.5C25.3824 22.2014 24.8676 20.9562 23.9519 20.0381C23.0362 19.12 21.7947 18.604 20.5 18.6036V18.6036ZM31.9132 14.8399C31.6647 14.2082 31.2894 13.6344 30.8107 13.1542C30.3319 12.674 29.7599 12.2976 29.1301 12.0483C27.2083 11.2873 22.6324 11.4581 20.5 11.4581C18.3676 11.4581 13.7963 11.2809 11.869 12.0483C11.2392 12.2976 10.6672 12.674 10.1884 13.1542C9.70967 13.6344 9.3344 14.2082 9.08589 14.8399C8.32813 16.7676 8.49743 21.3621 8.49743 23.4991C8.49743 25.6361 8.32813 30.225 9.08955 32.1592C9.33806 32.7909 9.71333 33.3647 10.1921 33.8449C10.6708 34.3251 11.2428 34.7015 11.8726 34.9507C13.7945 35.7117 18.3704 35.541 20.5037 35.541C22.6369 35.541 27.2064 35.7182 29.1338 34.9507C29.7636 34.7015 30.3356 34.3251 30.8143 33.8449C31.2931 33.3647 31.6683 32.7909 31.9169 32.1592C32.681 30.2315 32.5053 25.637 32.5053 23.5C32.5053 21.363 32.681 16.775 31.9169 14.8408L31.9132 14.8399ZM20.5 31.0273C19.0158 31.0273 17.5648 30.5859 16.3307 29.7588C15.0966 28.9316 14.1348 27.756 13.5668 26.3806C12.9988 25.0051 12.8502 23.4916 13.1397 22.0315C13.4293 20.5713 14.144 19.2301 15.1935 18.1774C16.2431 17.1246 17.5802 16.4077 19.036 16.1173C20.4917 15.8268 22.0006 15.9759 23.3718 16.5456C24.7431 17.1154 25.9151 18.0802 26.7397 19.318C27.5643 20.5559 28.0045 22.0112 28.0045 23.5C28.0057 24.4888 27.8124 25.4682 27.4357 26.382C27.059 27.2958 26.5062 28.1261 25.8091 28.8253C25.1121 29.5245 24.2843 30.079 23.3733 30.4568C22.4622 30.8347 21.4858 31.0286 20.5 31.0273V31.0273ZM28.3138 17.4139C27.9673 17.414 27.6286 17.3112 27.3404 17.1182C27.0522 16.9253 26.8275 16.6509 26.6948 16.3299C26.5621 16.0089 26.5273 15.6555 26.5948 15.3147C26.6623 14.9738 26.829 14.6606 27.074 14.4148C27.3189 14.169 27.631 14.0016 27.9708 13.9337C28.3106 13.8658 28.6629 13.9006 28.983 14.0335C29.3031 14.1665 29.5767 14.3917 29.7693 14.6806C29.9618 14.9696 30.0645 15.3093 30.0645 15.6569C30.0655 15.8877 30.021 16.1164 29.9337 16.3299C29.8463 16.5434 29.7178 16.7375 29.5555 16.9011C29.3932 17.0647 29.2002 17.1945 28.9878 17.2831C28.7753 17.3717 28.5475 17.4174 28.3175 17.4175L28.3138 17.4139ZM36.6071 2.9375H4.39286C3.2278 2.9375 2.11046 3.40173 1.28664 4.22806C0.462818 5.05439 0 6.17514 0 7.34375L0 39.6562C0 40.8249 0.462818 41.9456 1.28664 42.7719C2.11046 43.5983 3.2278 44.0625 4.39286 44.0625H36.6071C37.7722 44.0625 38.8895 43.5983 39.7134 42.7719C40.5372 41.9456 41 40.8249 41 39.6562V7.34375C41 6.17514 40.5372 5.05439 39.7134 4.22806C38.8895 3.40173 37.7722 2.9375 36.6071 2.9375V2.9375ZM35.0404 29.5586C34.9223 31.9113 34.3869 33.9961 32.6746 35.709C30.9623 37.4219 28.8858 37.9699 26.5429 38.0819C24.1259 38.2187 16.8796 38.2187 14.4626 38.0819C12.117 37.9635 10.0459 37.4256 8.33087 35.709C6.61583 33.9924 6.07679 31.9068 5.96513 29.5586C5.82877 27.1333 5.82877 19.8639 5.96513 17.4414C6.08319 15.0887 6.61217 13.0039 8.33087 11.291C10.0496 9.57809 12.1261 9.03648 14.4626 8.92449C16.8796 8.78771 24.1259 8.78771 26.5429 8.92449C28.8885 9.04291 30.966 9.58084 32.6746 11.2974C34.3833 13.014 34.9287 15.0997 35.0404 17.4524C35.1767 19.8685 35.1767 27.1315 35.0404 29.5586Z" fill="#4B47AB"/>
</g>
<defs>
<clipPath id="clip0_6_38">
<rect width="41" height="47" fill="white"/>
</clipPath>
</defs>
</svg>
