<svg width="41" height="47" viewBox="0 0 41 47" fill="none" xmlns="http://www.w3.org/2000/svg">
<path d="M20.5 11.2727C13.8467 11.2727 8.43795 16.6979 8.42879 23.3715C8.42879 25.6572 9.06942 27.8879 10.2775 29.8064L10.5612 30.2654L9.34397 34.7268L13.9107 33.5242L14.35 33.7904C16.1987 34.892 18.3219 35.4795 20.4908 35.4795H20.5C27.1442 35.4795 32.6993 30.0543 32.6993 23.3807C32.6993 20.1494 31.3083 17.1109 29.0295 14.8252C26.7415 12.5303 23.7214 11.2727 20.5 11.2727ZM27.5926 28.5672C27.2906 29.4209 25.8446 30.192 25.1491 30.293C23.996 30.4674 23.0991 30.3756 20.802 29.3842C17.1688 27.8053 14.7893 24.1334 14.6063 23.8947C14.4232 23.6561 13.1237 21.9211 13.1237 20.1311C13.1237 18.341 14.0571 17.4598 14.3958 17.0926C14.7252 16.7254 15.1187 16.6336 15.3658 16.6336C15.6038 16.6336 15.8509 16.6336 16.0614 16.6428C16.281 16.652 16.583 16.5602 16.8759 17.267C17.1779 17.9922 17.9009 19.7822 17.9924 19.9658C18.0839 20.1494 18.148 20.3605 18.0199 20.5992C17.3243 21.9945 16.583 21.9395 16.9583 22.582C18.3585 24.9963 19.7587 25.8316 21.8911 26.9057C22.2571 27.0893 22.4676 27.0617 22.6781 26.8139C22.8886 26.5752 23.5842 25.749 23.8221 25.391C24.06 25.0238 24.3071 25.0881 24.6366 25.2074C24.9661 25.3268 26.7507 26.208 27.1167 26.3916C27.4828 26.5752 27.7208 26.667 27.8123 26.8139C27.8946 26.9883 27.8946 27.7227 27.5926 28.5672V28.5672ZM36.6071 2.9375H4.39286C1.96763 2.9375 0 4.91113 0 7.34375V39.6562C0 42.0889 1.96763 44.0625 4.39286 44.0625H36.6071C39.0324 44.0625 41 42.0889 41 39.6562V7.34375C41 4.91113 39.0324 2.9375 36.6071 2.9375ZM20.4908 37.9305C18.0565 37.9305 15.6679 37.3154 13.5538 36.1588L5.85714 38.1875L7.91629 30.6418C6.6442 28.4387 5.97612 25.9326 5.97612 23.3623C5.98527 15.3393 12.4922 8.8125 20.4908 8.8125C24.3712 8.8125 28.0136 10.3271 30.7592 13.0811C33.4955 15.835 35.1429 19.4885 35.1429 23.3807C35.1429 31.4037 28.4895 37.9305 20.4908 37.9305Z" fill="#4B47AB"/>
</svg>
