<svg width="41" height="47" viewBox="0 0 41 47" fill="none" xmlns="http://www.w3.org/2000/svg">
<path d="M36.6071 2.9375H4.39286C1.96763 2.9375 0 4.91113 0 7.34375V39.6562C0 42.0889 1.96763 44.0625 4.39286 44.0625H36.6071C39.0324 44.0625 41 42.0889 41 39.6562V7.34375C41 4.91113 39.0324 2.9375 36.6071 2.9375ZM25.3779 38.16C24.6092 38.2977 24.3254 37.8203 24.3254 37.4256C24.3254 36.9299 24.3438 34.3963 24.3438 32.3492C24.3438 30.9172 23.8679 30.0084 23.3096 29.5311C26.6958 29.1547 30.265 28.6865 30.265 22.8207C30.265 21.15 29.6701 20.3146 28.7 19.2406C28.8556 18.8459 29.3772 17.2211 28.5444 15.1098C27.2723 14.715 24.3621 16.7529 24.3621 16.7529C23.154 16.4133 21.8453 16.2389 20.5549 16.2389C19.2645 16.2389 17.9558 16.4133 16.7478 16.7529C16.7478 16.7529 13.8375 14.715 12.5654 15.1098C11.7326 17.2119 12.2451 18.8367 12.4098 19.2406C11.4397 20.3146 10.9821 21.15 10.9821 22.8207C10.9821 28.659 14.3958 29.1547 17.7819 29.5311C17.3426 29.9258 16.9491 30.6051 16.8118 31.5781C15.9424 31.9729 13.7185 32.6521 12.3915 30.3021C11.5587 28.8518 10.0578 28.7324 10.0578 28.7324C8.57522 28.7141 9.95714 29.6688 9.95714 29.6688C10.9455 30.1277 11.6411 31.8902 11.6411 31.8902C12.5288 34.6166 16.7752 33.6986 16.7752 33.6986C16.7752 34.9746 16.7935 37.0492 16.7935 37.4256C16.7935 37.8203 16.519 38.2977 15.7411 38.16C9.70089 36.1313 5.47277 30.3664 5.47277 23.6285C5.47277 15.2016 11.8973 8.80332 20.2987 8.80332C28.7 8.80332 35.5089 15.2016 35.5089 23.6285C35.5181 30.3664 31.4181 36.1404 25.3779 38.16ZM16.4 32.5512C16.2261 32.5879 16.0614 32.5145 16.0431 32.3951C16.0248 32.2574 16.1438 32.1381 16.3176 32.1014C16.4915 32.083 16.6562 32.1564 16.6746 32.2758C16.702 32.3951 16.583 32.5145 16.4 32.5512ZM15.5306 32.4686C15.5306 32.5879 15.3933 32.6889 15.2103 32.6889C15.0089 32.7072 14.8717 32.6063 14.8717 32.4686C14.8717 32.3492 15.0089 32.2482 15.192 32.2482C15.3658 32.2299 15.5306 32.3309 15.5306 32.4686ZM14.2768 32.3676C14.2402 32.4869 14.0571 32.542 13.9016 32.4869C13.7277 32.4502 13.6087 32.3125 13.6453 32.1932C13.6819 32.0738 13.865 32.0188 14.0205 32.0555C14.2036 32.1105 14.3225 32.2482 14.2768 32.3676ZM13.1511 31.8719C13.0687 31.9729 12.8949 31.9545 12.7576 31.8168C12.6203 31.6975 12.5837 31.523 12.6752 31.4404C12.7576 31.3395 12.9315 31.3578 13.0688 31.4955C13.1877 31.6148 13.2335 31.7984 13.1511 31.8719ZM12.3183 31.0365C12.2359 31.0916 12.0804 31.0365 11.9797 30.8988C11.879 30.7611 11.879 30.6051 11.9797 30.5408C12.0804 30.4582 12.2359 30.5225 12.3183 30.6602C12.419 30.7979 12.419 30.9631 12.3183 31.0365V31.0365ZM11.7234 30.1461C11.6411 30.2287 11.5038 30.1828 11.4031 30.091C11.3025 29.9717 11.2842 29.834 11.3665 29.7697C11.4489 29.6871 11.5862 29.733 11.6868 29.8248C11.7875 29.9441 11.8058 30.0818 11.7234 30.1461ZM11.1103 29.4668C11.0737 29.5494 10.9547 29.5678 10.854 29.5035C10.735 29.4484 10.6801 29.3475 10.7167 29.2648C10.7533 29.2098 10.854 29.1822 10.973 29.2281C11.092 29.2924 11.1469 29.3934 11.1103 29.4668Z" fill="#4B47AB"/>
</svg>
